General
Complete name                            : The Police - Synchronicity Concert (2005).mkv
Format                                   : Matroska
Format version                           : Version 2
File size                                : 1.05 GiB
Duration                                 : 1h 15mn
Overall bit rate                         : 1 999 Kbps
Encoded date                             : UTC 2011-11-04 15:37:23
Writing application                      : mkvmerge v4.9.1
Writing library                          : libebml v1.2.1 + libmatroska v1.1.1

Video
ID                                       : 1
Format                                   : AVC
Format/Info                              : Advanced Video Codec
Format profile                           : Main@L3.0
Format settings, CABAC                   : Yes
Format settings, ReFrames                : 2 frames
Codec ID                                 : V_MPEG4/ISO/AVC
Duration                                 : 1h 15mn
Bit rate                                 : 1 205 Kbps
Width                                    : 720 pixels
Height                                   : 480 pixels
Display aspect ratio                     : 4:3
Frame rate                               : 29.970 fps
Standard                                 : NTSC
Color space                              : YUV
Chroma subsampling                       : 4:2:0
Bit depth                                : 8 bits
Scan type                                : Progressive
Bits/(Pixel*Frame)                       : 0.116
Stream size                              : 647 MiB (60%)

Audio
ID                                       : 2
Format                                   : DTS
Format/Info                              : Digital Theater Systems
Codec ID                                 : A_DTS
Duration                                 : 1h 15mn
Bit rate mode                            : Constant
Bit rate                                 : 755 Kbps
Channel(s)                               : 6 channels
Channel positions                        : Front: L C R, Side: L R, LFE
Sampling rate                            : 48.0 KHz
Bit depth                                : 24 bits
Compression mode                         : Lossy
Delay relative to video                  : 66ms
Stream size                              : 405 MiB (38%)
Language                                 : English

Set List
00. Intro
01. Synchronicity I
02. Walking In Your Footsteps
03. Message In A Bottle
04. Walking On The Moon
05. Wrapped Around Your Finger
06. Hole In My Life
07. King Of Pain
08. One World (Not Three)
09. Tea In My Sahara
10. O My God
11. De Do Do Do, De Da Da Da
12. Every Breath You Take
13. Can't Stand Losing You
14. Spirits In The Material World
15. So Lonely

Extra
1. Synchronicity II
2. Roxanne
3. Invisible Sun
4. Don't Stand So Close To Me